<?xml version="1.0" encoding="UTF-8" standalone="no"?>
<svg width="180px" height="23px" viewBox="0 0 180 23" version="1.1" xmlns="http://www.w3.org/2000/svg" xmlns:xlink="http://www.w3.org/1999/xlink" xmlns:sketch="http://www.bohemiancoding.com/sketch/ns">
    <!-- Generator: Sketch 3.3.3 (12081) - http://www.bohemiancoding.com/sketch -->
    <title>Small Capps Logo</title>
    <desc>Created with Sketch.</desc>
    <defs></defs>
    <g id="Page-1" stroke="none" stroke-width="1" fill="none" fill-rule="evenodd" sketch:type="MSPage">
        <g id="Small-Capps-Logo" sketch:type="MSLayerGroup" fill="#FFFFFF">
            <path d="M61.7913043,20.7304348 L61.7913043,1.11304348 L60.5104348,1.11304348 L60.5104348,21.9973913 L72.2434783,21.9973913 L72.2434783,20.7304348 L61.7913043,20.7304348" id="Fill-1" sketch:type="MSShapeGroup"></path>
            <path d="M87.233913,20.7243478 L76.7808696,20.7304348 L76.7808696,1.11304348 L75.5,1.11304348 L75.5,21.9973913 L87.233913,21.9973913 L87.233913,20.7243478" id="Fill-2" sketch:type="MSShapeGroup"></path>
            <path d="M27.6017391,19.9947826 L19.3878261,1.11304348 L17.8808696,1.11304348 L17.8869565,21.9973913 L19.153913,21.9973913 L19.153913,3.79652174 L27.1408696,21.9973913 L28.0765217,21.9973913 L36.1043478,3.69826087 L36.1043478,21.9973913 L37.3721739,21.9973913 L37.3721739,1.11304348 L35.8426087,1.11304348 L27.6017391,19.9947826" id="Fill-3" sketch:type="MSShapeGroup"></path>
            <path d="M102.73913,1.9773913 C101.563478,1.37565217 100.201739,1.07478261 98.6530435,1.07478261 C95.9478261,1.07478261 93.7608696,2.05217391 92.0913043,4.00608696 C90.4208696,5.96 89.586087,8.42956522 89.586087,11.4147826 L89.586087,11.7086957 C89.586087,14.6756522 90.4347826,17.1382609 92.1330435,19.0965217 C93.8304348,21.0556522 96.0034783,22.0356522 98.6530435,22.0356522 C100.201739,22.0356522 101.563478,21.7391304 102.73913,21.1469565 C103.913913,20.553913 104.795652,19.8808696 105.383478,19.1252174 L105.383478,15.5008696 L103.438261,15.5008696 L102.92087,18.3834783 C102.510435,18.8034783 101.927826,19.1582609 101.172174,19.4469565 C100.416522,19.7356522 99.5765217,19.8808696 98.6530435,19.8808696 C96.6756522,19.8808696 95.1295652,19.1086957 94.0147826,17.5643478 C92.9,16.0208696 92.3426087,14.0686957 92.3426087,11.7086957 L92.3426087,11.3869565 C92.3426087,9.02695652 92.9113043,7.07913043 94.0495652,5.54521739 C95.1878261,4.01130435 96.8156522,3.24347826 98.9330435,3.24347826 C99.8373913,3.24347826 100.617391,3.38347826 101.269565,3.66347826 C101.922609,3.94347826 102.473043,4.30173913 102.92087,4.74086957 L103.438261,7.62347826 L105.383478,7.62347826 L105.383478,3.99913043 C104.795652,3.25217391 103.913913,2.57913043 102.73913,1.9773913" id="Fill-4" sketch:type="MSShapeGroup"></path>
            <path d="M12.6686957,12.9521739 C11.493913,12.0730435 9.74347826,11.3217391 7.46434783,10.7191304 C5.1826087,10.1356522 3.59043478,9.46608696 2.73391304,8.73043478 C1.89478261,8.00956522 1.48695652,7.13043478 1.48695652,6.04173913 C1.48695652,4.96 1.9826087,4.05304348 3.0026087,3.27130435 C4.02956522,2.48521739 5.45217391,2.08608696 7.23391304,2.08608696 C8.56173913,2.08608696 9.72347826,2.31304348 10.6869565,2.76173913 C11.6182609,3.19565217 12.3756522,3.83565217 12.9382609,4.66521739 L14.206087,4.16347826 L14.1669565,4.10086957 C13.48,3.00869565 12.5330435,2.17826087 11.3495652,1.63304348 C10.1782609,1.09304348 8.79304348,0.819130435 7.23391304,0.819130435 C5.22086957,0.819130435 3.53652174,1.29130435 2.22956522,2.22434783 C0.895652174,3.17478261 0.219130435,4.46869565 0.219130435,6.06956522 C0.219130435,7.67826087 0.79826087,8.9226087 1.93913043,9.76695652 C3.03826087,10.5808696 4.7826087,11.3121739 7.12347826,11.9417391 C9.39130435,12.5634783 11.0008696,13.253913 11.906087,13.9921739 C12.7895652,14.7121739 13.2182609,15.6495652 13.2182609,16.8582609 C13.2182609,18.0886957 12.6886957,19.0643478 11.5982609,19.8391304 C10.4947826,20.6252174 9.06,21.0234783 7.33130435,21.0234783 C6.15652174,21.0234783 5.00434783,20.8130435 3.91043478,20.3973913 C2.85913043,19.9973913 1.97826087,19.3521739 1.29043478,18.4773913 L0.0234782609,18.973913 L0.0765217391,19.0426087 C0.929565217,20.1556522 2.01826087,20.986087 3.31043478,21.5095652 C4.58869565,22.0286957 5.94086957,22.2913043 7.33130435,22.2913043 C9.35478261,22.2913043 11.0652174,21.8078261 12.4191304,20.8521739 C13.7991304,19.8773913 14.4991304,18.5243478 14.4991304,16.8304348 C14.4991304,15.166087 13.8834783,13.8617391 12.6686957,12.9521739" id="Fill-5" sketch:type="MSShapeGroup"></path>
            <path d="M48.1791304,1.11304348 L40.3808696,21.9973913 L41.766087,21.9973913 L44.0156522,15.9104348 L53.6234783,15.9104348 L55.8695652,21.9973913 L57.2826087,21.9973913 L49.4582609,1.11304348 L48.1791304,1.11304348 L48.1791304,1.11304348 Z M44.486087,14.6434783 L48.6417391,3.50521739 L48.8226087,2.9573913 L53.1521739,14.6434783 L44.486087,14.6434783 L44.486087,14.6434783 Z" id="Fill-6" sketch:type="MSShapeGroup"></path>
            <path d="M178.058261,12.7304348 C176.943478,11.6947826 175.313913,10.9113043 173.167826,10.38 C171.385217,9.93217391 170.096522,9.41217391 169.29913,8.82 C168.50087,8.22695652 168.102609,7.48782609 168.102609,6.60173913 C168.102609,5.60347826 168.493913,4.79478261 169.277391,4.17391304 C170.061739,3.55304348 171.185217,3.24347826 172.649565,3.24347826 C173.573043,3.24347826 174.385217,3.36086957 175.084348,3.59304348 C175.784348,3.82608696 176.344348,4.12 176.763478,4.47478261 L177.281739,7.38521739 L179.366087,7.38521739 L179.366087,3.59304348 C178.657391,2.89391304 177.717391,2.29913043 176.546957,1.80956522 C175.376522,1.32 174.077391,1.07478261 172.649565,1.07478261 C170.486087,1.07478261 168.726957,1.60434783 167.374783,2.6626087 C166.022609,3.72173913 165.346087,5.04869565 165.346087,6.64347826 C165.346087,8.15478261 165.952174,9.40956522 167.165217,10.4078261 C168.377391,11.406087 170.061739,12.1617391 172.215652,12.6747826 C173.987826,13.1034783 175.224348,13.6330435 175.924348,14.2626087 C176.623478,14.8921739 176.973913,15.673913 176.973913,16.606087 C176.973913,17.613913 176.569565,18.4113043 175.763478,18.9991304 C174.956522,19.5869565 173.858261,19.8808696 172.467826,19.8808696 C171.441739,19.8808696 170.56,19.7408696 169.823478,19.4608696 C169.086957,19.1808696 168.452174,18.8217391 167.92,18.3834783 L167.388696,15.4591304 L165.318261,15.4591304 L165.318261,19.2504348 C166.082609,20.0817391 167.073913,20.7530435 168.291304,21.266087 C169.508696,21.7782609 170.90087,22.0356522 172.467826,22.0356522 C174.632174,22.0356522 176.383478,21.5365217 177.721739,20.5382609 C179.06,19.54 179.730435,18.22 179.730435,16.5782609 C179.730435,15.0478261 179.172174,13.766087 178.058261,12.7304348" id="Fill-7" sketch:type="MSShapeGroup"></path>
            <path d="M138.356522,1.36869565 L128.995652,1.36869565 L128.995652,3.14521739 L131.276522,3.5373913 L131.276522,19.5869565 L128.995652,19.9782609 L128.995652,21.7417391 L136.313913,21.7417391 L136.313913,19.9782609 L134.033043,19.5869565 L134.033043,13.5695652 L138.356522,13.5695652 C140.530435,13.5695652 142.22087,13.0147826 143.428696,11.9052174 C144.637391,10.7947826 145.24087,9.31652174 145.24087,7.46956522 C145.24087,5.64086957 144.637391,4.16695652 143.428696,3.04782609 C142.22087,1.92782609 140.530435,1.36869565 138.356522,1.36869565 L138.356522,1.36869565 Z M141.455652,10.3026087 C140.770435,11.0443478 139.736522,11.4147826 138.356522,11.4147826 L134.033043,11.4147826 L134.033043,3.5373913 L138.356522,3.5373913 C139.736522,3.5373913 140.770435,3.91478261 141.455652,4.67043478 C142.141739,5.42608696 142.484348,6.36869565 142.484348,7.4973913 C142.484348,8.62521739 142.141739,9.56086957 141.455652,10.3026087 L141.455652,10.3026087 Z" id="Fill-8" sketch:type="MSShapeGroup"></path>
            <path d="M156.053043,1.36869565 L146.692174,1.36869565 L146.692174,3.14521739 L148.973043,3.5373913 L148.973043,19.5869565 L146.692174,19.9782609 L146.692174,21.7417391 L154.010435,21.7417391 L154.010435,19.9782609 L151.729565,19.5869565 L151.729565,13.5695652 L156.053043,13.5695652 C158.226957,13.5695652 159.916522,13.0147826 161.125217,11.9052174 C162.333913,10.7947826 162.937391,9.31652174 162.937391,7.46956522 C162.937391,5.64086957 162.333913,4.16695652 161.125217,3.04782609 C159.916522,1.92782609 158.226957,1.36869565 156.053043,1.36869565 L156.053043,1.36869565 Z M159.152174,10.3026087 C158.466957,11.0443478 157.433043,11.4147826 156.053043,11.4147826 L151.729565,11.4147826 L151.729565,3.5373913 L156.053043,3.5373913 C157.433043,3.5373913 158.466957,3.91478261 159.152174,4.67043478 C159.838261,5.42608696 160.18087,6.36869565 160.18087,7.4973913 C160.18087,8.62521739 159.838261,9.56086957 159.152174,10.3026087 L159.152174,10.3026087 Z" id="Fill-9" sketch:type="MSShapeGroup"></path>
            <path d="M118.557391,1.36869565 L116.193043,1.36869565 L109.070435,19.7686957 L107.55913,19.9782609 L107.55913,21.7417391 L113.393913,21.7417391 L113.393913,19.9782609 L111.854783,19.7121739 L113.24,15.9626087 L121.398261,15.9626087 L122.74087,19.7121739 L121.201739,19.9782609 L121.201739,21.7417391 L127.050435,21.7417391 L127.050435,19.9782609 L125.553913,19.7686957 L118.557391,1.36869565 L118.557391,1.36869565 Z M114.093913,13.653913 L117.312174,4.90869565 L117.395652,4.90869565 L120.558261,13.653913 L114.093913,13.653913 L114.093913,13.653913 Z" id="Fill-10" sketch:type="MSShapeGroup"></path>
        </g>
    </g>
</svg>